<?xml version="1.0" standalone="no"?>
<!DOCTYPE svg PUBLIC "-//W3C//DTD SVG 20010904//EN"
 "http://www.w3.org/TR/2001/REC-SVG-20010904/DTD/svg10.dtd">
<svg version="1.0" xmlns="http://www.w3.org/2000/svg"
 width="512.000000pt" height="512.000000pt" viewBox="0 0 512.000000 512.000000"
 preserveAspectRatio="xMidYMid meet">

<g transform="translate(0.000000,512.000000) scale(0.100000,-0.100000)"
fill="#3681AA" stroke="none">
<path d="M2524 5110 c-12 -4 -31 -21 -43 -36 -21 -27 -22 -33 -19 -311 l3
-283 28 -27 c38 -38 96 -38 134 0 l28 27 0 291 0 291 -33 29 c-33 29 -60 35
-98 19z"/>
<path d="M1415 4919 c-36 -21 -55 -53 -55 -93 0 -38 7 -47 198 -237 130 -131
207 -200 226 -205 42 -10 94 18 112 61 12 30 12 39 0 68 -8 17 -99 117 -203
220 -158 157 -194 188 -223 192 -19 3 -44 0 -55 -6z"/>
<path d="M3615 4911 c-48 -30 -383 -373 -394 -403 -29 -77 62 -153 135 -115
16 9 113 101 217 205 179 181 187 191 187 228 0 41 -21 74 -57 93 -31 16 -54
14 -88 -8z"/>
<path d="M844 4061 c-118 -19 -220 -96 -270 -204 l-29 -62 -3 -1605 c-2 -1198
1 -1612 9 -1633 18 -44 79 -68 125 -50 9 3 163 129 342 280 l325 273 1461 0
c1242 0 1469 2 1515 15 120 31 225 142 250 261 9 45 11 346 9 1259 l-3 1200
-29 63 c-36 78 -113 151 -194 184 l-57 23 -1207 0 c-1203 0 -1207 0 -1234 -21
-49 -36 -55 -95 -15 -145 l19 -24 1204 -5 c1180 -5 1204 -5 1237 -25 19 -11
43 -33 55 -48 21 -28 21 -29 24 -1083 l2 -1054 -340 0 c-363 0 -385 -3 -410
-49 -13 -25 -13 -77 0 -102 25 -46 47 -49 411 -49 l342 0 -5 -51 c-5 -53 -26
-89 -72 -123 -27 -21 -32 -21 -1530 -26 -1363 -5 -1504 -6 -1526 -21 -14 -9
-133 -108 -265 -219 l-240 -202 -3 1463 c-2 1377 -1 1464 15 1498 37 73 89 90
271 91 116 0 124 1 147 24 47 47 43 112 -9 150 -24 18 -43 21 -149 23 -67 1
-145 -2 -173 -6z"/>
<path d="M1445 4036 c-32 -32 -40 -69 -25 -107 17 -39 46 -59 90 -59 44 0 73
20 90 59 26 64 -20 131 -90 131 -30 0 -47 -6 -65 -24z"/>
<path d="M1984 3082 c-28 -18 -40 -49 -182 -468 -83 -247 -154 -461 -157 -476
-13 -54 39 -118 96 -118 59 0 86 35 133 175 l23 70 140 3 141 3 32 -98 c37
-113 69 -153 124 -153 48 0 96 46 96 92 0 46 -298 925 -324 955 -29 33 -83 39
-122 15z m90 -510 l35 -102 -70 0 c-38 0 -69 3 -69 7 0 13 64 202 67 199 2 -2
19 -49 37 -104z"/>
<path d="M2750 3090 c-61 -26 -60 -9 -60 -528 0 -306 4 -480 10 -493 22 -40
61 -49 212 -49 213 0 321 36 426 141 121 120 168 313 131 539 -27 174 -156
321 -328 377 -57 18 -354 28 -391 13z m375 -223 c59 -30 95 -66 126 -126 19
-36 24 -65 27 -156 6 -144 -10 -203 -73 -273 -60 -67 -125 -92 -235 -92 l-80
0 0 341 0 342 93 -5 c73 -4 103 -10 142 -31z"/>
<path d="M3285 1651 c-64 -27 -81 -110 -32 -158 40 -41 99 -39 138 5 37 42 38
82 2 122 -30 32 -75 45 -108 31z"/>
<path d="M1755 721 c-16 -10 -112 -102 -212 -203 -175 -177 -183 -187 -183
-224 1 -64 54 -111 114 -100 24 5 77 52 223 199 106 105 197 205 202 220 15
38 -8 91 -48 111 -39 21 -59 20 -96 -3z"/>
<path d="M3270 727 c-14 -7 -33 -29 -43 -49 -16 -33 -16 -40 -4 -70 20 -46
384 -405 420 -413 60 -15 117 34 117 101 0 34 -13 49 -187 226 -222 224 -240
236 -303 205z"/>
<path d="M2525 691 c-11 -5 -29 -19 -40 -31 -19 -21 -20 -38 -23 -305 l-3
-284 28 -31 c18 -19 41 -33 64 -36 31 -5 42 -1 70 24 l34 30 0 291 0 291 -25
25 c-28 27 -74 39 -105 26z"/>
</g>
</svg>
