<?xml version="1.0" standalone="no"?>
<!DOCTYPE svg PUBLIC "-//W3C//DTD SVG 20010904//EN"
 "http://www.w3.org/TR/2001/REC-SVG-20010904/DTD/svg10.dtd">
<svg version="1.0" xmlns="http://www.w3.org/2000/svg"
 width="200.000000pt" height="200.000000pt" viewBox="0 0 200.000000 200.000000"
 preserveAspectRatio="xMidYMid meet">

<g transform="translate(0.000000,200.000000) scale(0.100000,-0.100000)"
fill="#3681AA" stroke="none">
<path d="M828 1990 c-406 -73 -727 -386 -810 -789 -26 -128 -21 -336 12 -456
95 -350 366 -618 720 -713 81 -21 117 -25 245 -26 125 -1 165 3 240 22 93 24
288 113 338 154 l29 24 -20 23 -19 24 -34 -25 c-60 -46 -199 -109 -293 -133
l-91 -23 -52 50 c-29 27 -79 61 -110 76 -52 24 -70 27 -163 27 -92 0 -113 -4
-173 -29 -82 -34 -92 -31 -206 54 -81 60 -111 90 -92 90 27 0 51 64 51 139 0
50 7 96 21 138 31 91 19 126 -76 220 -79 78 -85 92 -85 203 0 53 -4 73 -21 94
-25 32 -62 52 -112 61 -41 8 -45 23 -23 85 9 24 19 34 30 32 35 -6 91 22 148
75 33 30 81 64 107 75 63 28 108 63 127 101 13 25 15 45 9 101 -15 144 -18
135 55 172 78 41 168 72 233 80 l47 7 0 -34 c0 -19 -4 -39 -8 -45 -4 -6 -41
-28 -84 -48 -106 -50 -154 -112 -113 -146 18 -15 45 -6 45 14 0 21 53 59 131
94 73 32 80 42 88 122 l6 55 80 0 c44 0 106 -4 138 -9 l58 -8 -8 -36 c-4 -20
-6 -53 -5 -72 2 -19 4 -48 5 -65 l2 -30 -71 -6 c-108 -10 -149 -37 -159 -103
-8 -51 -11 -56 -52 -84 -53 -37 -61 -97 -18 -132 14 -12 50 -15 159 -15 124 0
145 -2 176 -20 39 -24 62 -77 41 -98 -20 -20 -156 -13 -246 12 -106 31 -203
32 -270 2 -108 -47 -175 -151 -175 -269 1 -140 94 -219 270 -229 57 -4 91 -10
103 -21 16 -14 17 -12 17 26 0 39 -2 42 -37 51 -21 6 -63 9 -93 8 -65 -2 -140
30 -174 76 -27 36 -29 146 -4 192 61 114 181 151 346 105 109 -30 212 -37 265
-16 53 20 72 50 64 105 -7 54 -38 95 -89 117 -35 15 -69 19 -175 19 -72 0
-135 4 -140 8 -4 5 11 25 35 45 33 29 46 49 56 87 11 44 17 52 47 62 19 7 60
12 91 12 49 1 59 5 78 28 19 24 20 35 14 108 -10 124 7 129 162 53 153 -76
303 -215 388 -358 27 -46 96 -199 96 -213 0 -2 -13 -2 -29 1 -16 2 -54 -3 -85
-12 -55 -16 -58 -16 -86 4 -62 44 -147 34 -175 -21 -29 -55 -18 -92 36 -120
44 -22 46 -17 23 41 -13 33 -14 43 -3 56 17 20 65 12 95 -17 27 -25 49 -26
128 -5 65 17 85 12 113 -31 14 -21 17 -49 16 -162 -1 -174 -28 -286 -106 -435
l-54 -103 29 -11 c27 -10 29 -8 53 31 48 83 96 198 117 284 32 127 32 352 -1
473 -51 192 -145 354 -277 480 -128 122 -279 208 -441 252 -87 23 -339 34
-425 18z m-364 -314 c11 -85 -3 -108 -95 -152 -35 -17 -92 -57 -127 -88 -60
-53 -92 -69 -92 -45 0 17 66 126 115 189 52 68 164 172 179 167 6 -2 15 -34
20 -71z m-332 -546 c59 -17 68 -32 68 -113 0 -110 10 -133 95 -217 84 -83 91
-105 59 -191 -10 -27 -16 -73 -16 -116 1 -73 -12 -103 -41 -103 -18 1 -89 104
-135 195 -72 143 -109 324 -97 473 7 88 7 88 67 72z m833 -993 c50 -27 95 -60
95 -71 0 -9 -97 -7 -175 4 -90 13 -225 50 -225 61 0 19 96 39 175 36 63 -3 91
-9 130 -30z"/>
<path d="M1283 1076 c-128 -41 -233 -169 -249 -306 -12 -108 43 -244 125 -309
81 -63 118 -76 227 -76 86 0 108 4 152 24 l52 25 30 -35 c17 -20 27 -40 23
-49 -3 -8 -8 -30 -11 -47 -4 -29 6 -45 88 -145 149 -181 157 -185 234 -117 72
63 75 55 -112 282 -63 76 -72 81 -122 79 -18 -1 -33 9 -52 34 l-28 37 30 38
c187 235 16 582 -284 578 -34 0 -80 -6 -103 -13z m234 -74 c109 -56 168 -149
167 -267 0 -121 -60 -215 -169 -267 -86 -40 -169 -39 -253 2 -110 56 -166 145
-165 265 1 134 72 233 202 282 52 19 166 11 218 -15z m317 -768 c48 -58 89
-111 92 -118 2 -6 -6 -22 -19 -34 l-24 -22 -84 102 c-121 147 -115 135 -87
158 13 11 26 19 29 20 3 0 45 -48 93 -106z"/>
<path d="M1014 480 c8 -75 45 -160 83 -190 14 -11 41 -20 60 -20 33 0 106 30
117 49 10 15 -63 36 -77 22 -17 -17 -52 -13 -70 7 -8 9 -25 38 -36 64 -10 25
-34 66 -51 90 l-32 43 6 -65z"/>
</g>
</svg>
