<?xml version="1.0" standalone="no"?>
<!DOCTYPE svg PUBLIC "-//W3C//DTD SVG 20010904//EN"
 "http://www.w3.org/TR/2001/REC-SVG-20010904/DTD/svg10.dtd">
<svg version="1.0" xmlns="http://www.w3.org/2000/svg"
 width="326.000000pt" height="244.000000pt" viewBox="0 0 326.000000 244.000000"
 preserveAspectRatio="xMidYMid meet">

<g transform="translate(0.000000,244.000000) scale(0.100000,-0.100000)"
fill="#3681AA" stroke="none">
<path d="M690 2427 c-139 -40 -251 -135 -355 -302 -206 -330 -351 -1028 -323
-1556 23 -443 188 -639 458 -546 36 12 200 100 365 194 165 94 356 200 424
235 l124 63 248 3 248 3 163 -84 c90 -46 286 -154 436 -240 151 -86 295 -164
320 -173 192 -65 332 16 406 239 42 125 56 241 56 477 0 355 -51 685 -157
1014 -149 466 -373 701 -648 684 -93 -6 -157 -36 -249 -118 -86 -77 -128 -103
-208 -132 -60 -21 -78 -22 -353 -23 -378 0 -403 7 -577 157 -46 39 -103 80
-128 91 -56 25 -186 32 -250 14z m150 -648 c83 -37 127 -100 137 -193 10 -93
-53 -194 -143 -232 -19 -8 -62 -14 -96 -14 -214 0 -314 264 -154 403 67 58
174 73 256 36z m1731 -48 c37 -37 38 -79 3 -120 -44 -53 -123 -40 -150 24 -38
92 76 167 147 96z m-184 -183 c30 -28 31 -85 3 -121 -52 -66 -160 -27 -160 58
0 82 96 120 157 63z m342 21 c31 -11 61 -52 61 -84 0 -32 -30 -73 -62 -84 -59
-21 -128 23 -128 83 0 31 26 69 55 82 37 16 35 16 74 3z m-155 -210 c35 -41
34 -83 -3 -120 -71 -71 -185 4 -147 96 17 40 40 54 88 55 28 0 42 -7 62 -31z
m-1299 -159 c88 -37 148 -131 148 -230 0 -140 -113 -253 -253 -254 -75 0 -125
19 -178 68 -59 54 -82 105 -82 184 0 73 19 124 63 170 84 87 192 110 302 62z
m918 6 c94 -34 157 -123 157 -222 0 -146 -146 -259 -290 -224 -71 17 -123 58
-155 124 -63 129 -5 273 131 321 49 18 108 18 157 1z"/>
<path d="M1028 1171 c-43 -27 -98 -100 -98 -130 0 -8 23 -11 83 -9 l82 3 3 83
c3 95 0 97 -70 53z"/>
<path d="M1232 1118 l3 -83 83 -3 c76 -3 82 -1 82 17 0 29 -60 103 -105 128
-64 36 -66 34 -63 -59z"/>
<path d="M930 891 c0 -23 69 -108 105 -128 62 -35 65 -33 65 57 l0 80 -85 0
c-47 0 -85 -4 -85 -9z"/>
<path d="M1230 820 c0 -57 4 -80 13 -80 27 1 93 47 124 88 51 67 47 72 -52 72
l-85 0 0 -80z"/>
</g>
</svg>
