<?xml version="1.0" standalone="no"?>
<!DOCTYPE svg PUBLIC "-//W3C//DTD SVG 20010904//EN"
 "http://www.w3.org/TR/2001/REC-SVG-20010904/DTD/svg10.dtd">
<svg version="1.0" xmlns="http://www.w3.org/2000/svg"
 width="131.000000pt" height="70.000000pt" viewBox="0 0 131.000000 70.000000"
 preserveAspectRatio="xMidYMid meet">

<g transform="translate(0.000000,70.000000) scale(0.100000,-0.100000)"
fill="#3681AA" stroke="none">
<path d="M134 629 l-129 -59 -3 -129 c-3 -151 -19 -130 146 -187 l112 -39 130
45 c124 42 130 46 130 72 0 22 5 27 28 30 19 2 28 9 30 26 3 17 10 22 33 22
27 0 29 -3 29 -36 0 -27 -7 -41 -30 -61 -20 -16 -30 -34 -30 -53 0 -19 -6 -29
-20 -33 -19 -5 -21 -12 -18 -109 l3 -103 105 0 105 0 3 103 c3 97 1 104 -18
109 -14 4 -20 14 -20 33 0 19 -10 37 -30 53 -23 20 -30 34 -30 61 0 33 2 36
30 36 25 0 30 -4 30 -25 0 -21 5 -25 30 -25 26 0 30 -4 30 -28 0 -26 5 -29
130 -72 l130 -45 112 39 c166 57 149 36 146 187 l-3 130 -128 58 -129 59 -126
-58 c-126 -57 -127 -57 -130 -93 -3 -33 -7 -37 -38 -43 -29 -5 -34 -10 -34
-35 0 -29 -1 -29 -60 -29 l-60 0 0 30 c0 24 -4 30 -22 30 -35 0 -46 12 -50 49
-3 33 -6 36 -129 91 l-127 58 -128 -59z m231 -12 c53 -24 97 -47 98 -51 3 -13
-186 -77 -213 -72 -14 2 -65 19 -115 37 l-90 33 100 47 c55 26 105 48 111 48
6 1 55 -18 109 -42z m786 -5 l104 -48 -90 -33 c-50 -18 -101 -35 -115 -37 -25
-5 -203 54 -211 69 -4 8 175 95 197 96 7 1 58 -21 115 -47z m-1003 -108 l102
-37 0 -113 0 -113 -111 39 c-61 22 -113 40 -115 40 -2 0 -4 50 -4 110 0 81 3
110 13 110 6 0 58 -16 115 -36z m352 20 c0 -10 -6 -14 -15 -11 -8 4 -17 2 -21
-4 -3 -6 3 -13 15 -16 18 -4 21 -13 21 -55 0 -36 -4 -49 -12 -45 -47 17 -60
19 -56 6 3 -8 19 -18 36 -23 24 -7 32 -15 32 -32 0 -13 -1 -24 -2 -24 -3 0
-183 -64 -210 -75 -17 -7 -18 2 -18 108 l0 115 103 35 c119 41 127 42 127 21z
m422 -20 l108 -36 0 -107 c0 -59 -2 -110 -5 -113 -3 -3 -54 12 -112 33 -59 22
-108 39 -110 39 -2 0 -3 10 -3 23 0 17 9 26 35 36 19 7 35 17 35 22 0 9 -17 7
-57 -8 -9 -4 -13 9 -13 46 0 39 4 51 15 51 8 0 15 5 15 10 0 6 -7 10 -15 10
-8 0 -15 7 -15 15 0 20 -1 20 122 -21z m358 -74 c0 -60 -2 -110 -4 -110 -2 0
-54 -18 -115 -40 l-111 -39 0 113 0 113 98 36 c142 51 132 57 132 -73z m-711
34 c3 -3 -2 -12 -11 -21 -13 -12 -14 -20 -5 -34 13 -21 4 -34 -18 -26 -10 5
-15 20 -15 52 0 43 1 46 23 39 12 -3 24 -8 26 -10z m211 -29 c0 -32 -5 -47
-15 -52 -23 -8 -31 5 -17 28 10 16 10 20 -3 25 -31 12 -16 36 28 43 4 0 7 -19
7 -44z m-98 -142 c10 -9 18 -27 18 -40 0 -21 -4 -23 -50 -23 -45 0 -50 2 -50
22 0 25 27 58 48 58 9 0 24 -7 34 -17z m48 -173 l0 -80 -80 0 -80 0 0 80 0 80
80 0 80 0 0 -80z"/>
<path d="M636 152 c-7 -12 5 -82 14 -82 9 0 21 70 14 82 -3 4 -9 8 -14 8 -5 0
-11 -4 -14 -8z"/>
</g>
</svg>
