<?xml version="1.0" standalone="no"?>
<!DOCTYPE svg PUBLIC "-//W3C//DTD SVG 20010904//EN"
 "http://www.w3.org/TR/2001/REC-SVG-20010904/DTD/svg10.dtd">
<svg version="1.0" xmlns="http://www.w3.org/2000/svg"
 width="512.000000pt" height="512.000000pt" viewBox="0 0 512.000000 512.000000"
 preserveAspectRatio="xMidYMid meet">

<g transform="translate(0.000000,512.000000) scale(0.100000,-0.100000)"
fill="#3681AA" stroke="none">
<path d="M1125 4951 c-90 -22 -172 -90 -215 -176 l-25 -50 -3 -520 -3 -521
-69 -11 c-190 -29 -346 -171 -395 -358 -12 -49 -15 -141 -15 -543 l0 -483 25
-24 c29 -30 74 -32 106 -6 l24 19 5 504 5 503 25 50 c47 96 140 165 243 180
l47 7 0 -1016 0 -1017 25 -24 24 -25 696 0 c427 0 703 4 714 10 10 5 24 23 31
40 15 35 0 84 -31 100 -11 6 -267 10 -658 10 l-641 0 2 1549 c3 1547 3 1550
24 1577 11 15 33 37 48 48 27 21 33 21 1277 24 687 1 1249 0 1249 -3 0 -3 -8
-20 -17 -38 -17 -29 -18 -89 -23 -717 l-5 -684 -90 -12 c-49 -6 -118 -19 -151
-28 -34 -9 -67 -16 -73 -16 -8 0 -11 102 -11 354 l0 354 30 12 c41 17 107 94
120 139 24 86 -3 194 -61 248 -63 58 -180 80 -257 47 -46 -19 -98 -68 -122
-114 -56 -110 -18 -245 87 -307 l43 -25 0 -392 0 -391 -61 -34 c-156 -86 -337
-255 -436 -408 -31 -49 -58 -90 -60 -92 -2 -3 -48 39 -102 92 l-98 97 -185 0
-186 0 -12 30 c-28 68 -129 130 -210 130 -124 0 -240 -116 -240 -240 0 -124
116 -240 240 -240 81 0 182 62 210 130 l12 30 152 0 151 -1 97 -95 98 -95 -26
-87 c-27 -94 -54 -252 -54 -319 l0 -43 -369 0 -369 0 -12 30 c-28 68 -129 130
-210 130 -124 0 -240 -116 -240 -240 0 -124 116 -240 240 -240 81 0 182 62
210 130 l12 30 374 0 374 0 5 -27 c56 -302 163 -512 364 -714 61 -61 141 -129
189 -160 l83 -54 -67 -5 c-84 -6 -104 -27 -104 -106 l0 -54 -320 0 -320 0 0
55 c0 46 -4 60 -25 80 l-24 25 -816 0 -815 0 0 535 0 536 -25 24 c-15 16 -36
25 -55 25 -19 0 -40 -9 -55 -25 l-25 -24 0 -536 0 -535 -95 0 c-88 0 -98 -2
-120 -25 -25 -24 -25 -27 -25 -187 0 -178 11 -240 56 -330 36 -71 123 -159
193 -197 113 -60 127 -61 659 -61 l483 0 24 25 c30 29 32 74 6 106 l-19 24
-504 5 -503 5 -63 34 c-70 38 -101 70 -139 145 -23 45 -27 66 -31 174 l-4 122
881 0 881 0 0 -55 c0 -46 4 -60 25 -80 l24 -25 431 0 431 0 24 25 c21 20 25
34 25 80 l0 55 881 0 881 0 -4 -122 c-4 -108 -8 -129 -31 -174 -38 -75 -69
-107 -139 -145 l-63 -34 -1383 -5 -1384 -5 -19 -24 c-26 -32 -24 -77 6 -106
l24 -25 1363 0 c1501 0 1418 -3 1539 61 70 38 157 126 193 197 45 90 56 152
56 330 0 160 0 163 -25 187 -22 23 -32 25 -120 25 l-95 0 0 185 0 186 54 88
c66 111 108 213 100 246 -11 45 -53 66 -104 52 -21 -5 -38 -30 -83 -122 -119
-237 -288 -409 -509 -518 -557 -273 -1222 -47 -1502 510 -274 548 -45 1218
511 1497 424 212 943 126 1283 -214 222 -222 344 -533 328 -836 -3 -51 -1
-100 5 -110 26 -51 89 -60 127 -19 21 23 24 36 28 138 9 245 -61 500 -194 713
l-44 72 0 214 c0 232 -8 285 -56 380 -36 71 -123 159 -193 197 -104 55 -147
61 -443 61 l-268 0 0 240 0 240 215 0 216 0 25 25 25 26 -3 257 c-3 257 -3
257 -30 308 -40 76 -70 107 -140 145 l-63 34 -1425 2 c-784 0 -1438 -2 -1455
-6z m2883 -178 c64 -48 67 -57 70 -264 l3 -189 -160 0 -161 0 0 174 c0 100 5
187 11 203 14 37 47 72 84 89 40 19 119 12 153 -13z m-761 -485 c41 -38 28
-105 -26 -128 -61 -25 -126 40 -101 101 7 16 20 34 29 39 28 16 74 11 98 -12z
m1141 -807 c70 -38 101 -70 140 -145 23 -46 26 -64 30 -189 l4 -138 -81 65
c-105 85 -212 147 -336 195 -98 38 -260 78 -340 83 l-40 3 -3 83 -3 83 283 -3
283 -3 63 -34z m-2573 -626 c50 -49 15 -135 -55 -135 -41 0 -80 39 -80 80 0
41 39 80 80 80 19 0 40 -9 55 -25z m-320 -800 c50 -49 15 -135 -55 -135 -19 0
-40 9 -55 25 -16 15 -25 36 -25 55 0 19 9 40 25 55 15 16 36 25 55 25 19 0 40
-9 55 -25z m3065 -1000 l0 -95 -127 0 -127 0 78 52 c43 28 99 71 125 94 25 24
47 43 49 44 1 0 2 -43 2 -95z"/>
<path d="M1305 4535 c-25 -24 -25 -26 -25 -215 0 -189 0 -191 25 -215 l24 -25
711 0 711 0 24 25 c25 24 25 26 25 215 0 189 0 191 -25 215 l-24 25 -711 0
-711 0 -24 -25z m1335 -215 l0 -80 -600 0 -600 0 0 80 0 80 600 0 600 0 0 -80z"/>
<path d="M1785 3895 c-16 -15 -25 -36 -25 -55 0 -19 9 -40 25 -55 l24 -25 471
0 471 0 24 25 c16 15 25 36 25 55 0 19 -9 40 -25 55 l-24 25 -471 0 -471 0
-24 -25z"/>
<path d="M1305 3575 c-16 -15 -25 -36 -25 -55 0 -19 9 -40 25 -55 l24 -25 711
0 711 0 24 25 c16 15 25 36 25 55 0 19 -9 40 -25 55 l-24 25 -711 0 -711 0
-24 -25z"/>
<path d="M2105 3255 c-16 -15 -25 -36 -25 -55 0 -19 9 -40 25 -55 l24 -25 271
0 271 0 24 25 c16 15 25 36 25 55 0 19 -9 40 -25 55 l-24 25 -271 0 -271 0
-24 -25z"/>
<path d="M3537 3029 c-88 -13 -193 -47 -286 -93 -141 -69 -178 -119 -130 -180
30 -38 76 -35 147 9 306 188 722 137 977 -122 156 -157 230 -338 230 -563 0
-174 -36 -298 -124 -432 -240 -366 -718 -476 -1087 -249 -327 201 -464 595
-333 956 16 44 45 105 64 137 44 71 47 117 9 147 -61 48 -111 11 -181 -130
-153 -311 -133 -663 53 -952 60 -92 189 -221 281 -281 309 -199 695 -206 1015
-19 112 65 266 219 329 328 54 93 92 185 116 281 24 95 24 333 0 428 -46 182
-128 328 -261 462 -220 219 -514 318 -819 273z"/>
<path d="M3643 2707 c-12 -7 -117 -145 -233 -307 -180 -251 -210 -299 -207
-325 2 -20 77 -133 216 -328 219 -305 230 -317 285 -303 32 8 448 587 453 631
3 26 -27 74 -207 325 -200 279 -234 319 -270 319 -8 0 -25 -5 -37 -12z m167
-384 c69 -97 126 -180 128 -183 1 -4 -56 -19 -128 -33 l-130 -26 -130 26 c-72
14 -129 29 -128 33 7 15 253 359 258 359 3 0 61 -79 130 -176z m-210 -388 c81
-15 90 -15 185 3 55 11 101 19 103 17 4 -4 -201 -294 -208 -294 -5 0 -202 276
-209 292 -2 6 7 7 20 4 13 -3 62 -13 109 -22z"/>
<path d="M585 615 c-16 -15 -25 -36 -25 -55 0 -19 9 -40 25 -55 49 -50 135
-15 135 55 0 41 -39 80 -80 80 -19 0 -40 -9 -55 -25z"/>
<path d="M905 615 c-16 -15 -25 -36 -25 -55 0 -19 9 -40 25 -55 49 -50 135
-15 135 55 0 41 -39 80 -80 80 -19 0 -40 -9 -55 -25z"/>
<path d="M4105 615 c-50 -49 -15 -135 55 -135 41 0 80 39 80 80 0 41 -39 80
-80 80 -19 0 -40 -9 -55 -25z"/>
<path d="M4425 615 c-50 -49 -15 -135 55 -135 41 0 80 39 80 80 0 41 -39 80
-80 80 -19 0 -40 -9 -55 -25z"/>
</g>
</svg>
