<?xml version="1.0" standalone="no"?>
<!DOCTYPE svg PUBLIC "-//W3C//DTD SVG 20010904//EN"
 "http://www.w3.org/TR/2001/REC-SVG-20010904/DTD/svg10.dtd">
<svg version="1.0" xmlns="http://www.w3.org/2000/svg"
 width="512.000000pt" height="512.000000pt" viewBox="0 0 512.000000 512.000000"
 preserveAspectRatio="xMidYMid meet">

<g transform="translate(0.000000,512.000000) scale(0.100000,-0.100000)"
fill="#3681AA" stroke="none">
<path d="M2375 5091 c-217 -62 -440 -256 -612 -532 -57 -91 -155 -289 -204
-410 -22 -56 -39 -102 -37 -104 2 -1 53 -12 113 -23 228 -45 480 -74 738 -86
l97 -4 0 589 c0 555 -1 589 -17 588 -10 0 -45 -8 -78 -18z"/>
<path d="M2650 4521 l0 -589 98 4 c257 12 509 41 737 86 61 11 111 22 113 23
6 5 -82 213 -139 327 -169 336 -362 555 -594 671 -61 31 -172 67 -204 67 -8 0
-11 -166 -11 -589z"/>
<path d="M1818 5009 c-278 -84 -565 -230 -801 -407 -102 -78 -290 -247 -295
-266 -1 -6 19 -21 45 -33 26 -12 91 -40 143 -63 129 -57 417 -157 426 -147 1
1 19 47 39 102 104 279 264 539 465 757 45 48 80 88 78 87 -2 0 -47 -13 -100
-30z"/>
<path d="M3271 4962 c88 -95 233 -286 290 -383 57 -99 160 -316 194 -411 32
-91 9 -89 215 -21 139 47 430 170 430 183 0 15 -200 198 -293 268 -247 186
-559 343 -835 420 l-73 21 72 -77z"/>
<path d="M509 4088 c-139 -189 -226 -343 -317 -558 -99 -236 -166 -522 -186
-797 l-6 -83 194 0 194 0 7 38 c22 122 143 272 265 329 91 43 150 53 315 53
l143 0 7 53 c32 251 76 488 126 676 16 62 29 114 27 116 -2 1 -57 19 -123 40
-159 49 -272 94 -434 171 -74 35 -134 64 -135 64 -1 0 -36 -46 -77 -102z"/>
<path d="M4465 4158 c-121 -64 -304 -139 -460 -190 -88 -28 -161 -52 -163 -54
-2 -1 11 -53 27 -115 50 -188 94 -425 126 -676 l7 -53 148 0 c169 0 229 -10
317 -52 122 -57 237 -195 264 -315 l12 -53 189 0 188 0 -6 83 c-37 500 -203
947 -503 1355 -41 56 -78 102 -81 102 -3 -1 -32 -15 -65 -32z"/>
<path d="M1446 3818 c-58 -203 -136 -614 -136 -717 l0 -31 580 0 580 0 0 339
0 339 -127 6 c-281 15 -520 44 -757 92 -65 13 -120 24 -122 24 -1 0 -9 -24
-18 -52z"/>
<path d="M3575 3854 c-211 -47 -517 -86 -792 -100 l-133 -6 0 -339 0 -339 580
0 580 0 0 31 c0 148 -132 771 -163 768 -7 -1 -39 -7 -72 -15z"/>
<path d="M3097 2846 c-63 -23 -96 -63 -112 -133 l-7 -33 71 0 c65 0 70 2 73
22 4 32 49 52 82 37 14 -7 28 -21 32 -31 15 -49 -22 -88 -86 -88 -30 0 -30 -1
-30 -54 l0 -53 45 -6 c25 -2 55 -13 65 -22 44 -39 10 -115 -50 -115 -34 0 -70
31 -70 60 0 18 -7 20 -65 20 l-65 0 0 -32 c0 -49 39 -108 85 -132 61 -32 167
-34 224 -4 58 30 83 65 88 125 6 61 -16 116 -55 141 l-30 18 33 32 c59 55 59
150 1 208 -51 51 -148 68 -229 40z"/>
<path d="M3840 2848 c-56 -16 -91 -48 -119 -107 -24 -51 -26 -67 -26 -182 0
-120 1 -128 30 -184 43 -83 90 -108 201 -103 70 3 85 7 116 30 119 91 127 406
13 507 -54 47 -135 62 -215 39z m130 -143 c22 -23 25 -37 28 -123 3 -73 0
-107 -11 -135 -28 -66 -112 -75 -144 -14 -37 72 -24 251 20 282 33 23 80 19
107 -10z"/>
<path d="M994 2803 c4 -10 37 -136 73 -280 l65 -263 83 0 83 0 42 173 c24 94
45 176 48 181 3 5 25 -73 49 -173 l45 -181 82 0 82 0 69 268 c37 147 70 273
73 280 3 9 -15 12 -70 12 l-74 0 -38 -195 c-21 -107 -40 -195 -42 -195 -4 0
-13 35 -59 233 l-37 158 -76 -3 -76 -3 -47 -188 c-26 -104 -49 -190 -51 -192
-2 -2 -21 83 -42 190 l-39 195 -74 0 c-67 0 -74 -2 -69 -17z"/>
<path d="M1860 2540 l0 -280 170 0 170 0 0 55 0 55 -100 0 -100 0 0 65 0 65
90 0 90 0 0 50 0 50 -90 0 -90 0 0 60 0 60 100 0 100 0 0 50 0 50 -170 0 -170
0 0 -280z"/>
<path d="M2292 2543 l3 -278 135 -3 c74 -2 158 2 185 8 54 11 100 46 116 87
24 63 -2 147 -53 174 -13 6 -24 13 -26 14 -2 2 14 19 35 38 35 33 38 39 38 90
0 65 -22 102 -76 129 -28 15 -62 18 -197 18 l-162 0 2 -277z m279 151 c10 -9
19 -27 19 -40 0 -40 -25 -54 -96 -54 l-64 0 0 61 0 62 61 -6 c37 -3 68 -12 80
-23z m-1 -207 c19 -9 26 -22 28 -49 4 -50 -23 -68 -105 -68 l-63 0 0 65 0 65
58 0 c31 0 68 -6 82 -13z"/>
<path d="M5 2388 c32 -429 164 -835 389 -1193 61 -98 186 -265 198 -265 4 0
48 20 96 44 137 69 275 125 436 178 83 27 151 50 153 52 2 1 -10 54 -27 117
-50 192 -93 422 -125 677 l-7 52 -143 0 c-79 0 -168 5 -197 11 -172 36 -319
170 -374 339 l-21 65 -192 3 -192 2 6 -82z"/>
<path d="M4745 2458 c-36 -108 -49 -137 -74 -176 -67 -105 -186 -190 -301
-216 -46 -11 -119 -16 -219 -16 l-149 0 -7 -52 c-32 -255 -75 -485 -125 -677
-17 -63 -29 -116 -27 -117 2 -2 70 -25 153 -52 161 -53 299 -109 436 -178 48
-24 92 -44 96 -44 12 0 137 167 198 265 225 358 357 764 389 1193 l6 82 -186
0 c-139 0 -187 -3 -190 -12z"/>
<path d="M3480 2380 c-47 -47 -11 -120 60 -120 48 0 80 27 80 68 0 63 -94 98
-140 52z"/>
<path d="M1321 1913 c30 -226 116 -631 140 -657 5 -5 63 2 141 17 264 51 567
87 745 87 50 0 98 3 107 6 14 5 16 45 16 345 l0 339 -583 0 -584 0 18 -137z"/>
<path d="M2650 1711 c0 -300 2 -340 16 -345 9 -3 57 -6 107 -6 178 0 481 -36
745 -87 78 -15 136 -22 141 -17 24 26 110 431 140 657 l18 137 -584 0 -583 0
0 -339z"/>
<path d="M2180 1169 c-203 -16 -637 -83 -655 -101 -8 -8 84 -227 142 -341 200
-391 467 -648 741 -711 l62 -14 0 589 0 589 -92 -1 c-51 -1 -140 -5 -198 -10z"/>
<path d="M2650 591 l0 -589 63 14 c273 63 540 320 740 711 58 114 150 333 142
341 -9 9 -188 42 -360 66 -191 27 -405 46 -517 46 l-68 0 0 -589z"/>
<path d="M1175 976 c-210 -70 -455 -175 -455 -195 0 -11 133 -136 229 -214
178 -146 438 -298 656 -385 95 -38 289 -102 308 -102 5 0 -27 39 -72 86 -211
223 -392 525 -485 812 -10 28 -18 52 -19 51 -1 0 -74 -24 -162 -53z"/>
<path d="M3775 1008 c-47 -134 -65 -179 -105 -265 -99 -211 -240 -420 -387
-573 -42 -44 -74 -82 -71 -85 7 -7 186 50 303 97 212 84 471 235 650 380 101
82 235 207 235 219 0 20 -291 143 -479 203 -126 40 -140 42 -146 24z"/>
</g>
</svg>
